<svg width="17" height="17" viewBox="0 0 17 17" fill="none" xmlns="http://www.w3.org/2000/svg">
<path d="M4.60417 1.41675H12.3958C12.5058 1.41675 12.6143 1.44235 12.7126 1.49153C12.811 1.54071 12.8965 1.61211 12.9625 1.70008L14.875 4.25008V14.8751C14.875 15.0629 14.8004 15.2431 14.6675 15.3759C14.5347 15.5088 14.3545 15.5834 14.1667 15.5834H2.83333C2.64547 15.5834 2.4653 15.5088 2.33247 15.3759C2.19963 15.2431 2.125 15.0629 2.125 14.8751V4.25008L4.0375 1.70008C4.10348 1.61211 4.18903 1.54071 4.28739 1.49153C4.38575 1.44235 4.4942 1.41675 4.60417 1.41675ZM13.4583 5.66675H3.54167V14.1667H13.4583V5.66675ZM13.1042 4.25008L12.0417 2.83341H4.95833L3.89583 4.25008H13.1042ZM6.375 7.08342V8.50008C6.375 9.06367 6.59888 9.60417 6.9974 10.0027C7.39591 10.4012 7.93641 10.6251 8.5 10.6251C9.06358 10.6251 9.60409 10.4012 10.0026 10.0027C10.4011 9.60417 10.625 9.06367 10.625 8.50008V7.08342H12.0417V8.50008C12.0417 9.43939 11.6685 10.3402 11.0043 11.0044C10.3401 11.6686 9.43931 12.0417 8.5 12.0417C7.56069 12.0417 6.65985 11.6686 5.99566 11.0044C5.33147 10.3402 4.95833 9.43939 4.95833 8.50008V7.08342H6.375Z" fill="black"/>
</svg>
