<svg width="20" height="20" viewBox="0 0 20 20" fill="none" xmlns="http://www.w3.org/2000/svg">
<path d="M5.37919 15.8333L1.66669 18.75V3.33333C1.66669 3.11232 1.75448 2.90036 1.91076 2.74408C2.06704 2.5878 2.27901 2.5 2.50002 2.5H17.5C17.721 2.5 17.933 2.5878 18.0893 2.74408C18.2456 2.90036 18.3334 3.11232 18.3334 3.33333V15C18.3334 15.221 18.2456 15.433 18.0893 15.5893C17.933 15.7455 17.721 15.8333 17.5 15.8333H5.37919ZM4.80252 14.1667H16.6667V4.16667H3.33335V15.3208L4.80252 14.1667ZM6.66669 8.33333H13.3334V10H6.66669V8.33333Z" fill="#01215C"/>
</svg>
