<svg width="17" height="17" viewBox="0 0 17 17" fill="none" xmlns="http://www.w3.org/2000/svg">
<path d="M8.50067 3.20803C10.1645 1.71415 12.7358 1.76374 14.3388 3.36953C15.941 4.97603 15.9963 7.53453 14.5059 9.20336L8.49925 15.2185L2.49401 9.20336C1.00367 7.53453 1.05963 4.97178 2.66117 3.36953C4.26555 1.76586 6.83184 1.71203 8.50067 3.20803ZM13.3358 4.3704C12.2733 3.30649 10.5591 3.26328 9.447 4.26203L8.50138 5.11061L7.55505 4.26274C6.43942 3.26257 4.7288 3.30649 3.66346 4.37182C2.60805 5.42724 2.55492 7.11661 3.52746 8.23294L8.49996 13.2132L13.4725 8.23365C14.4457 7.11661 14.3926 5.42936 13.3358 4.3704Z" fill="black"/>
</svg>
