<svg width="17" height="17" viewBox="0 0 17 17" fill="none" xmlns="http://www.w3.org/2000/svg">
<path d="M14.1667 15.5833H12.75V14.1666C12.75 13.603 12.5262 13.0625 12.1276 12.664C11.7291 12.2655 11.1886 12.0416 10.625 12.0416H6.37504C5.81146 12.0416 5.27095 12.2655 4.87244 12.664C4.47392 13.0625 4.25004 13.603 4.25004 14.1666V15.5833H2.83337V14.1666C2.83337 13.2273 3.20651 12.3264 3.8707 11.6622C4.5349 10.9981 5.43573 10.6249 6.37504 10.6249H10.625C11.5643 10.6249 12.4652 10.9981 13.1294 11.6622C13.7936 12.3264 14.1667 13.2273 14.1667 14.1666V15.5833ZM8.50004 9.20825C7.94192 9.20825 7.38927 9.09832 6.87364 8.88474C6.358 8.67116 5.88949 8.35811 5.49484 7.96346C5.10019 7.56881 4.78713 7.10029 4.57355 6.58466C4.35997 6.06902 4.25004 5.51637 4.25004 4.95825C4.25004 4.40013 4.35997 3.84748 4.57355 3.33185C4.78713 2.81621 5.10019 2.3477 5.49484 1.95305C5.88949 1.5584 6.358 1.24535 6.87364 1.03176C7.38927 0.818181 7.94192 0.708252 8.50004 0.708252C9.62721 0.708252 10.7082 1.15602 11.5052 1.95305C12.3023 2.75008 12.75 3.83108 12.75 4.95825C12.75 6.08542 12.3023 7.16643 11.5052 7.96346C10.7082 8.76049 9.62721 9.20825 8.50004 9.20825ZM8.50004 7.79159C9.25149 7.79159 9.97216 7.49307 10.5035 6.96172C11.0349 6.43037 11.3334 5.7097 11.3334 4.95825C11.3334 4.20681 11.0349 3.48614 10.5035 2.95478C9.97216 2.42343 9.25149 2.12492 8.50004 2.12492C7.74859 2.12492 7.02792 2.42343 6.49657 2.95478C5.96522 3.48614 5.66671 4.20681 5.66671 4.95825C5.66671 5.7097 5.96522 6.43037 6.49657 6.96172C7.02792 7.49307 7.74859 7.79159 8.50004 7.79159Z" fill="black"/>
</svg>
